<svg width="60" height="40" viewBox="0 0 24 40" fill="none" xmlns="http://www.w3.org/2000/svg">
  <g transform="translate(2, 2)">
    <path d="M10 0C4.48 0 0 4.48 0 10C0 15.52 4.48 20 10 20C15.52 20 20 15.52 20 10C20 4.48 15.52 0 10 0ZM10 18C5.59 18 2 14.41 2 10C2 5.59 5.59 2 10 2C14.41 2 18 5.59 18 10C18 14.41 14.41 18 10 18Z" fill="#2F5BEA"/>
    <path d="M10 5C7.24 5 5 7.24 5 10C5 12.76 7.24 15 10 15V13C8.34 13 7 11.66 7 10C7 8.34 8.34 7 10 7V5Z" fill="#FF7A59"/>
    <rect x="10" y="5" width="2" height="10" fill="#2F5BEA"/>
  </g>

  <text 
    x="12" 
    y="36" 
    text-anchor="middle" 
    fill="#F1F5F9" 
    font-family="Inter, Arial, sans-serif" 
    font-size="4.5" 
    font-weight="800" 
    style="letter-spacing: 0.8px;">AHREFS</text>
</svg>