<svg width="60" height="40" viewBox="0 0 24 40" fill="none" xmlns="http://www.w3.org/2000/svg">
  <g transform="translate(2, 2)">
    <path d="M10 2C5.58 2 2 5.58 2 10C2 14.42 5.58 18 10 18C14.42 18 18 14.42 18 10C18 5.58 14.42 2 10 2ZM10 16C6.69 16 4 13.31 4 10C4 6.69 6.69 4 10 4C13.31 4 16 6.69 16 10C16 13.31 13.31 16 10 16Z" fill="#69BF29"/>
    
    <path d="M7 11C7 11 8.5 13 10 13C11.5 13 13 11 13 11" stroke="#69BF29" stroke-width="1.5" stroke-linecap="round"/>
    
    <circle cx="7" cy="8" r="1.5" fill="#69BF29"/>
    <circle cx="13" cy="8" r="1.5" fill="#69BF29"/>
  </g>

  <text 
    x="12" 
    y="36" 
    text-anchor="middle" 
    fill="#F1F5F9" 
    font-family="Inter, Arial, sans-serif" 
    font-size="3.5" 
    font-weight="800" 
    style="letter-spacing: 0.5px;">SCREAMING FROG</text>
</svg>