<svg width="60" height="40" viewBox="0 0 24 40" fill="none" xmlns="http://www.w3.org/2000/svg">
  <g transform="translate(0, 2)">
    <path d="M12 2C6.48 2 2 6.48 2 12C2 17.52 6.48 22 12 22C17.52 22 22 17.52 22 12C22 6.48 17.52 2 12 2ZM12 20C7.59 20 4 16.41 4 12C4 7.59 7.59 4 12 4C16.41 4 20 7.59 20 12C20 16.41 16.41 20 12 20Z" fill="#FF642D"/>
    <path d="M17 11.5C17 13.98 14.98 16 12.5 16C10.02 16 8 13.98 8 11.5C8 9.02 10.02 7 12.5 7L13 8.5C11.5 8.5 10.5 9.5 10.5 11C10.5 12.5 11.5 13.5 13 13.5C14.5 13.5 15.5 12.5 15.5 11L17 11.5Z" fill="#FF642D"/>
  </g>

  <text 
    x="12" 
    y="36" 
    text-anchor="middle" 
    fill="#FF642D" 
    font-family="Inter, Arial, sans-serif" 
    font-size="5" 
    font-weight="bold" 
    style="letter-spacing: 1px;">SEMRUSH</text>
</svg>